<svg xmlns="http://www.w3.org/2000/svg" version="1.1" xmlns:xlink="http://www.w3.org/1999/xlink" xmlns:svgjs="http://svgjs.dev/svgjs" width="2000" height="900" preserveAspectRatio="none" viewBox="0 0 2000 900"><g mask="url(&quot;#SvgjsMask3755&quot;)" fill="none"><rect width="2000" height="900" x="0" y="0" fill="url(&quot;#SvgjsRadialGradient3756&quot;)"></rect><path d="M72 900L972 0L1252.5 0L352.5 900z" fill="url(&quot;#SvgjsLinearGradient3757&quot;)"></path><path d="M728 900L1628 0L2136.5 0L1236.5 900z" fill="url(&quot;#SvgjsLinearGradient3757&quot;)"></path><path d="M1952 900L1052 0L890 0L1790 900z" fill="url(&quot;#SvgjsLinearGradient3758&quot;)"></path><path d="M1248 900L348 0L87 0L987 900z" fill="url(&quot;#SvgjsLinearGradient3758&quot;)"></path><path d="M1217.4821960123263 900L2000 117.4821960123262L2000 900z" fill="url(&quot;#SvgjsLinearGradient3757&quot;)"></path><path d="M0 900L782.5178039876738 900L 0 117.4821960123262z" fill="url(&quot;#SvgjsLinearGradient3758&quot;)"></path></g><defs><mask id="SvgjsMask3755"><rect width="2000" height="900" fill="#ffffff"></rect></mask><radialGradient cx="0%" cy="0%" r="2193.17" gradientUnits="userSpaceOnUse" id="SvgjsRadialGradient3756"><stop stop-color="rgba(255, 161, 5, 1)" offset="0.22"></stop><stop stop-color="rgba(216, 21, 59, 1)" offset="0.85"></stop></radialGradient><linearGradient x1="0%" y1="100%" x2="100%" y2="0%" id="SvgjsLinearGradient3757"><stop stop-color="rgba(96, 10, 10, 0.2)" offset="0"></stop><stop stop-opacity="0" stop-color="rgba(96, 10, 10, 0.2)" offset="0.66"></stop></linearGradient><linearGradient x1="100%" y1="100%" x2="0%" y2="0%" id="SvgjsLinearGradient3758"><stop stop-color="rgba(96, 10, 10, 0.2)" offset="0"></stop><stop stop-opacity="0" stop-color="rgba(96, 10, 10, 0.2)" offset="0.66"></stop></linearGradient></defs></svg>