<svg xmlns="http://www.w3.org/2000/svg" version="1.1" xmlns:xlink="http://www.w3.org/1999/xlink" xmlns:svgjs="http://svgjs.dev/svgjs" width="2000" height="900" preserveAspectRatio="none" viewBox="0 0 2000 900"><g mask="url(&quot;#SvgjsMask1256&quot;)" fill="none"><rect width="2000" height="900" x="0" y="0" fill="url(&quot;#SvgjsLinearGradient1257&quot;)"></rect><path d="M2000 0L1786.19 0L2000 338.53z" fill="rgba(255, 255, 255, .1)"></path><path d="M1786.19 0L2000 338.53L2000 556.46L1614.81 0z" fill="rgba(255, 255, 255, .075)"></path><path d="M1614.81 0L2000 556.46L2000 706.1700000000001L779.9799999999999 0z" fill="rgba(255, 255, 255, .05)"></path><path d="M779.98 0L2000 706.1700000000001L2000 707.1600000000001L503.25 0z" fill="rgba(255, 255, 255, .025)"></path><path d="M0 900L55.47 900L0 780.91z" fill="rgba(0, 0, 0, .1)"></path><path d="M0 780.91L55.47 900L436.61 900L0 348.22999999999996z" fill="rgba(0, 0, 0, .075)"></path><path d="M0 348.23L436.61 900L542.99 900L0 289.98z" fill="rgba(0, 0, 0, .05)"></path><path d="M0 289.98L542.99 900L728.88 900L0 197.16000000000003z" fill="rgba(0, 0, 0, .025)"></path></g><defs><mask id="SvgjsMask1256"><rect width="2000" height="900" fill="#ffffff"></rect></mask><linearGradient x1="13.75%" y1="-30.56%" x2="86.25%" y2="130.56%" gradientUnits="userSpaceOnUse" id="SvgjsLinearGradient1257"><stop stop-color="rgba(115, 148, 239, 1)" offset="0"></stop><stop stop-color="rgba(105, 81, 177, 1)" offset="1"></stop></linearGradient></defs></svg>