<svg xmlns="http://www.w3.org/2000/svg" version="1.1" xmlns:xlink="http://www.w3.org/1999/xlink" xmlns:svgjs="http://svgjs.dev/svgjs" width="2000" height="900" preserveAspectRatio="none" viewBox="0 0 2000 900"><g mask="url(&quot;#SvgjsMask1009&quot;)" fill="none"><rect width="2000" height="900" x="0" y="0" fill="rgba(104, 124, 205, 1)"></rect><path d="M0,682.125C125.291,670.272,214.057,564.857,325.777,506.919C452.038,441.44,638.461,447.919,699.415,319.412C760.216,191.228,659.05,44.87,607.661,-87.369C566.24,-193.957,496.275,-279.466,430.368,-372.916C356.255,-478.002,321.309,-638.121,196.737,-670.024C71.503,-702.097,-38.127,-580.947,-153.396,-522.42C-246.856,-474.966,-335.66,-428.134,-414.869,-359.486C-505.952,-280.547,-633.032,-212.775,-648.589,-93.253C-664.154,26.331,-537.675,113.032,-490.836,224.157C-442.018,339.977,-459.853,486.802,-367.954,572.547C-272.449,661.656,-130.039,694.427,0,682.125" fill="#3e56ba"></path><path d="M2000 1467.431C2106.888 1454.893 2203.701 1414.9569999999999 2299.779 1366.466 2406.36 1312.674 2519.932 1266.046 2590.218 1169.5430000000001 2668.813 1061.631 2739.7129999999997 928.359 2714.321 797.296 2689.073 666.9739999999999 2568.693 577.975 2460.663 500.833 2369.322 435.608 2257.306 421.914 2148.743 393.429 2043.669 365.85900000000004 1942.574 325.023 1834.557 336.553 1712.222 349.611 1573.982 368.115 1495.818 463.124 1417.842 557.904 1459.411 698.361 1437.538 819.13 1414.591 945.833 1322.327 1068.606 1364.0990000000002 1190.406 1406.2820000000002 1313.404 1532.128 1390.595 1651.338 1442.528 1760.366 1490.025 1881.885 1481.286 2000 1467.431" fill="#96a4dc"></path></g><defs><mask id="SvgjsMask1009"><rect width="2000" height="900" fill="#ffffff"></rect></mask></defs></svg>