<svg xmlns="http://www.w3.org/2000/svg" version="1.1" xmlns:xlink="http://www.w3.org/1999/xlink" xmlns:svgjs="http://svgjs.dev/svgjs" width="2000" height="900" preserveAspectRatio="none" viewBox="0 0 2000 900"><g mask="url(&quot;#SvgjsMask2603&quot;)" fill="none"><rect width="2000" height="900" x="0" y="0" fill="url(&quot;#SvgjsLinearGradient2604&quot;)"></rect><path d="M 0,156 C 100,186.4 300,314.2 500,308 C 700,301.8 800,121.6 1000,125 C 1200,128.4 1300,339.6 1500,325 C 1700,310.4 1900,106.6 2000,52L2000 900L0 900z" fill="rgba(240, 136, 11, 1)"></path><path d="M 0,485 C 100,544.2 300,753.2 500,781 C 700,808.8 800,626 1000,624 C 1200,622 1300,792.4 1500,771 C 1700,749.6 1900,567.8 2000,517L2000 900L0 900z" fill="rgba(240, 167, 6, 1)"></path></g><defs><mask id="SvgjsMask2603"><rect width="2000" height="900" fill="#ffffff"></rect></mask><linearGradient x1="50%" y1="100%" x2="50%" y2="0%" gradientUnits="userSpaceOnUse" id="SvgjsLinearGradient2604"><stop stop-color="rgba(124, 15, 55, 1)" offset="0"></stop><stop stop-color="rgba(209, 11, 97, 1)" offset="1"></stop></linearGradient></defs></svg>